# xmcd
#
# Track frame offsets:
#	150
#	15817
#	31419
#	48921
#	65788
#	79780
#	95382
#	109559
#	124921
#	142075
#	158815
#	174072
#	223550
#	241134
#	256509
#	274468
#	288710
#	306689
#	323690
#
# Disc length: 4614 seconds
#
# Revision: 0
# Processed by: cddbd v1.5.1PL0 Copyright (c) Steve Scherf et al.
# Submitted via: audiograbber 1.81.03
#
DISCID=08120413
DTITLE=Andrea Berg - Andrea Berg
DYEAR=2004
DGENRE=Pop
TTITLE0=Andrea Berg - ich hab nie wieder im Regen getanzt
TTITLE1=Andrea Berg - lass mich mit die geh'n
TTITLE2=Andrea Berg - ich weiß, dass du mich belügst
TTITLE3=Andrea Berg - Schmetterlinge
TTITLE4=Andrea Berg - warum
TTITLE5=Andrea Berg - wenn dein Mund mich küsst
TTITLE6=Andrea Berg - du
TTITLE7=Andrea Berg - die Nacht nur als Kleid
TTITLE8=Andrea Berg - was ist geschehen  
TTITLE9=Andrea Berg - Grenzenlos
TTITLE10=Andrea Berg - der Abschiedskuss
TTITLE11=Andrea Berg - spiel noch einmal nur für mich
TTITLE12=Andrea Berg - ein Tag mit dir im Paradies
TTITLE13=Andrea Berg - bin nicht so stark 
TTITLE14=Andrea Berg - Sehnsucht
TTITLE15=Andrea Berg - Klimandscharo
TTITLE16=Andrea Berg - Du bist frei
TTITLE17=Andrea Berg - Du hast mich Tausendmal belogen
TTITLE18=Andrea Berg - Hit Medley  2004
EXTD=
EXTT0=
EXTT1=
EXTT2=
EXTT3=
EXTT4=
EXTT5=
EXTT6=
EXTT7=
EXTT8=
EXTT9=
EXTT10=
EXTT11=
EXTT12=
EXTT13=
EXTT14=
EXTT15=
EXTT16=
EXTT17=
EXTT18=
PLAYORDER=
